<svg width="86" height="86" viewBox="0 0 86 86" fill="none" xmlns="http://www.w3.org/2000/svg">
<path d="M78.2521 1.46352C78.4017 1.00287 79.0535 1.00287 79.2031 1.46353L80.1267 4.30587C80.1936 4.51188 80.3856 4.65136 80.6022 4.65136H83.5908C84.0752 4.65136 84.2766 5.27116 83.8847 5.55587L81.4669 7.31253C81.2916 7.43985 81.2183 7.66553 81.2852 7.87154L82.2088 10.7139C82.3584 11.1745 81.8312 11.5576 81.4393 11.2729L79.0215 9.51624C78.8462 9.38892 78.609 9.38892 78.4337 9.51624L76.0159 11.2729C75.624 11.5576 75.0968 11.1745 75.2464 10.7139L76.17 7.87154C76.2369 7.66553 76.1636 7.43985 75.9883 7.31253L73.5705 5.55586C73.1786 5.27116 73.38 4.65136 73.8644 4.65136H76.853C77.0696 4.65136 77.2616 4.51188 77.3285 4.30587L78.2521 1.46352Z" fill="white"/>
<path d="M15.0776 78.0133C15.3498 78.2855 15.2253 78.7502 14.8535 78.8498L4.5439 81.6123C4.17211 81.7119 3.83191 81.3717 3.93153 80.9999L6.69397 70.6903C6.79359 70.3185 7.25832 70.194 7.53048 70.4662L15.0776 78.0133Z" fill="#9BB5C8"/>
</svg>
