<svg width="102" height="98" viewBox="0 0 102 98" fill="none" xmlns="http://www.w3.org/2000/svg">
<circle cx="24.7884" cy="74.1947" r="23.7884" fill="#DADADA"/>
<path d="M75.2521 9.46352C75.4017 9.00287 76.0535 9.00287 76.2031 9.46353L77.1267 12.3059C77.1936 12.5119 77.3856 12.6514 77.6022 12.6514H80.5908C81.0752 12.6514 81.2766 13.2712 80.8847 13.5559L78.4669 15.3125C78.2916 15.4398 78.2183 15.6655 78.2852 15.8715L79.2088 18.7139C79.3584 19.1745 78.8312 19.5576 78.4393 19.2729L76.0215 17.5162C75.8462 17.3889 75.609 17.3889 75.4337 17.5162L73.0159 19.2729C72.624 19.5576 72.0968 19.1745 72.2464 18.7139L73.17 15.8715C73.2369 15.6655 73.1636 15.4398 72.9883 15.3125L70.5705 13.5559C70.1786 13.2712 70.38 12.6514 70.8644 12.6514H73.853C74.0696 12.6514 74.2616 12.5119 74.3285 12.3059L75.2521 9.46352Z" fill="#141414"/>
<path d="M12.0776 86.0133C12.3498 86.2855 12.2253 86.7502 11.8535 86.8498L1.5439 89.6123C1.17211 89.7119 0.831906 89.3717 0.931526 88.9999L3.69397 78.6903C3.79359 78.3185 4.25832 78.194 4.53048 78.4662L12.0776 86.0133Z" fill="#9BB5C8"/>
<circle cx="94.3898" cy="25.677" r="7.25703" fill="#DADADA"/>
<path d="M48.5362 20.5066C42.3734 20.5066 36.463 22.6699 32.1053 26.5206C27.7476 30.3714 25.2994 35.5941 25.2994 41.0399V45.1466H29.9468C31.1793 45.1466 32.3614 45.5792 33.233 46.3494C34.1045 47.1195 34.5941 48.1641 34.5941 49.2532V61.5732C34.5941 62.6624 34.1045 63.7069 33.233 64.4771C32.3614 65.2472 31.1793 65.6799 29.9468 65.6799H25.2994C24.0669 65.6799 22.8848 65.2472 22.0133 64.4771C21.1417 63.7069 20.6521 62.6624 20.6521 61.5732V41.0399C20.6521 37.8041 21.3733 34.6 22.7746 31.6106C24.176 28.6211 26.2299 25.9048 28.8192 23.6168C31.4084 21.3288 34.4823 19.5138 37.8654 18.2755C41.2484 17.0372 44.8744 16.3999 48.5362 16.3999C52.1979 16.3999 55.8239 17.0372 59.2069 18.2755C62.59 19.5138 65.6639 21.3288 68.2532 23.6168C70.8424 25.9048 72.8964 28.6211 74.2977 31.6106C75.699 34.6 76.4202 37.8041 76.4202 41.0399V65.6799C76.4202 68.4028 75.1961 71.0142 73.0173 72.9395C70.8384 74.8649 67.8832 75.9466 64.8019 75.9466H54.8844C54.4766 76.5708 53.8899 77.0893 53.1834 77.4497C52.477 77.8101 51.6756 77.9999 50.8598 77.9999H46.2125C44.9799 77.9999 43.7979 77.5672 42.9263 76.7971C42.0548 76.0269 41.5651 74.9824 41.5651 73.8932C41.5651 72.8041 42.0548 71.7595 42.9263 70.9894C43.7979 70.2192 44.9799 69.7866 46.2125 69.7866H50.8598C51.6756 69.7866 52.477 69.9763 53.1834 70.3368C53.8899 70.6972 54.4766 71.2156 54.8844 71.8399H64.8019C66.6507 71.8399 68.4238 71.1909 69.7311 70.0357C71.0384 68.8805 71.7729 67.3136 71.7729 65.6799H67.1255C65.893 65.6799 64.7109 65.2472 63.8394 64.4771C62.9678 63.7069 62.4782 62.6624 62.4782 61.5732V49.2532C62.4782 48.1641 62.9678 47.1195 63.8394 46.3494C64.7109 45.5792 65.893 45.1466 67.1255 45.1466H71.7729V41.0399C71.7729 38.3434 71.1718 35.6734 70.0041 33.1821C68.8363 30.6909 67.1247 28.4273 64.967 26.5206C62.8093 24.6139 60.2477 23.1015 57.4285 22.0696C54.6093 21.0377 51.5876 20.5066 48.5362 20.5066Z" fill="black"/>
</svg>
